<?xml version="1.0" encoding="utf-8"?>
<!-- Generator: Adobe Illustrator 16.0.0, SVG Export Plug-In . SVG Version: 6.00 Build 0)  -->
<!DOCTYPE svg PUBLIC "-//W3C//DTD SVG 1.1//EN" "http://www.w3.org/Graphics/SVG/1.1/DTD/svg11.dtd">
<svg version="1.1" id="Capa_1" xmlns="http://www.w3.org/2000/svg" xmlns:xlink="http://www.w3.org/1999/xlink" x="0px" y="0px"
	 width="225.639px" height="212.844px" viewBox="0 0 225.639 212.844" enable-background="new 0 0 225.639 212.844"
	 xml:space="preserve">
<g>
	<g>
		<path fill="#333" d="M114.191,100.309h28.548l-4.393-17.333h-19.764L114.191,100.309z M85.772,170.355
			c0,8.614-0.342,14.228-1.023,16.84c-0.683,2.612-1.905,4.555-3.669,5.825c-1.764,1.271-4.364,1.906-7.797,1.906
			c-2.917,0-6.022-0.446-9.315-1.341v13.203c4.94,1.176,9.197,1.766,12.772,1.766c6.962,0,12.302-1.46,16.019-4.378
			c3.716-2.918,6.139-6.802,7.268-11.65c1.129-4.848,1.694-12.238,1.694-22.171v-59.944H85.772V170.355z M121.054,73.117h14.823
			l-7.412-29.851L121.054,73.117z M172.935,100.309h24.979l-24.979-54.304V100.309z M198.936,39.186
			C178.185,15.192,147.45,0,113.149,0C78.972,0,48.334,15.083,27.587,38.928c0,4.726,0.136,51.169,0.136,51.169h24.431v10.133
			H15.676c0,0,0.178-45.131,0-44.832C5.716,72.17,0,91.736,0,112.63c0,71.979,60.175,100.276,60.114,100.214
			c0.565-1.973,0-182.724,0-182.724h40.352v10.133H72.192v19.17h21.96v9.859h-21.96v21.088h28.823v9.938h1.921l19.764-69.915h13.45
			l18.941,69.915h7.686V30.395h14.274l21.96,48.474C199.012,78.869,198.932,39.356,198.936,39.186z M225.557,99.67
			c-1.901-16.525-7.396-31.962-15.687-45.519c-0.483-0.791-0.976-1.573-0.976-1.573l0.549,47.731h16.195L225.557,99.67z
			 M166.325,157.082c-3.529-2.26-8.563-4.636-15.102-7.131c-7.669-2.918-12.784-5.429-15.348-7.529
			c-2.564-2.101-3.847-4.921-3.847-8.463c0-3.21,1.141-6.055,3.423-8.533c2.281-2.478,5.516-3.718,9.703-3.718
			c4.516,0,8.079,1.218,10.69,3.654c2.611,2.436,4.716,6.206,6.315,11.314l13.619-4.73c-4.328-15.534-14.325-23.301-29.99-23.301
			c-8.845,0-15.937,2.612-21.275,7.838c-5.34,5.225-8.009,11.674-8.009,19.346c0,5.037,1.199,9.532,3.599,13.486
			c2.398,3.954,5.304,6.943,8.715,8.967c3.41,2.024,8.973,4.496,16.688,7.414c7.292,2.777,11.854,5.39,13.689,7.837
			c1.835,2.448,2.752,5.108,2.752,7.979c0,3.907-1.329,7.191-3.986,9.85c-2.658,2.66-6.552,3.989-11.679,3.989
			c-10.491,0-16.983-5.931-19.477-17.793l-14.254,4.024c4.234,17.981,15.242,26.973,33.024,26.973
			c10.303,0,18.313-2.848,24.027-8.544c5.716-5.695,8.574-12.591,8.574-20.688c0-4.989-1.094-9.379-3.281-13.168
			S169.853,159.341,166.325,157.082z"/>
	</g>
</g>
</svg>
